<mxfile host="app.diagrams.net" modified="2020-07-24T16:33:30.299Z" agent="5.0 (X11)" etag="WLvg75CScCfvdQSqhQKX" version="13.5.3" type="github">
  <diagram id="1jPllQ1tISj0EKadcbya" name="Page-1">
    <mxGraphModel dx="1252" dy="1323" grid="1" gridSize="10" guides="1" tooltips="1" connect="1" arrows="1" fold="1" page="1" pageScale="1" pageWidth="850" pageHeight="1100" math="0" shadow="0">
      <root>
        <mxCell id="0" />
        <mxCell id="1" parent="0" />
        <mxCell id="5iVLJZqwECDxNZr4W1lh-3" style="edgeStyle=orthogonalEdgeStyle;rounded=0;orthogonalLoop=1;jettySize=auto;html=1;exitX=1;exitY=0.5;exitDx=0;exitDy=0;" edge="1" parent="1" source="5iVLJZqwECDxNZr4W1lh-1" target="5iVLJZqwECDxNZr4W1lh-2">
          <mxGeometry relative="1" as="geometry" />
        </mxCell>
        <mxCell id="5iVLJZqwECDxNZr4W1lh-19" style="edgeStyle=orthogonalEdgeStyle;rounded=0;orthogonalLoop=1;jettySize=auto;html=1;exitX=0.75;exitY=0;exitDx=0;exitDy=0;entryX=0.75;entryY=1;entryDx=0;entryDy=0;" edge="1" parent="1" source="5iVLJZqwECDxNZr4W1lh-1" target="5iVLJZqwECDxNZr4W1lh-13">
          <mxGeometry relative="1" as="geometry" />
        </mxCell>
        <mxCell id="5iVLJZqwECDxNZr4W1lh-1" value="ERDDAP" style="rounded=1;whiteSpace=wrap;html=1;" vertex="1" parent="1">
          <mxGeometry x="70" y="150" width="120" height="60" as="geometry" />
        </mxCell>
        <mxCell id="5iVLJZqwECDxNZr4W1lh-18" style="edgeStyle=orthogonalEdgeStyle;rounded=0;orthogonalLoop=1;jettySize=auto;html=1;exitX=0.5;exitY=0;exitDx=0;exitDy=0;entryX=1;entryY=0.5;entryDx=0;entryDy=0;" edge="1" parent="1" source="5iVLJZqwECDxNZr4W1lh-2" target="5iVLJZqwECDxNZr4W1lh-13">
          <mxGeometry relative="1" as="geometry" />
        </mxCell>
        <mxCell id="5iVLJZqwECDxNZr4W1lh-2" value="grafana" style="rounded=1;whiteSpace=wrap;html=1;" vertex="1" parent="1">
          <mxGeometry x="280" y="200" width="120" height="60" as="geometry" />
        </mxCell>
        <mxCell id="5iVLJZqwECDxNZr4W1lh-5" style="edgeStyle=orthogonalEdgeStyle;rounded=0;orthogonalLoop=1;jettySize=auto;html=1;exitX=1;exitY=0.5;exitDx=0;exitDy=0;" edge="1" parent="1" source="5iVLJZqwECDxNZr4W1lh-4" target="5iVLJZqwECDxNZr4W1lh-2">
          <mxGeometry relative="1" as="geometry" />
        </mxCell>
        <mxCell id="5iVLJZqwECDxNZr4W1lh-4" value="influxdb" style="rounded=1;whiteSpace=wrap;html=1;" vertex="1" parent="1">
          <mxGeometry x="70" y="240" width="120" height="60" as="geometry" />
        </mxCell>
        <mxCell id="5iVLJZqwECDxNZr4W1lh-7" style="edgeStyle=orthogonalEdgeStyle;rounded=0;orthogonalLoop=1;jettySize=auto;html=1;exitX=1;exitY=0.5;exitDx=0;exitDy=0;" edge="1" parent="1" source="5iVLJZqwECDxNZr4W1lh-6" target="5iVLJZqwECDxNZr4W1lh-4">
          <mxGeometry relative="1" as="geometry" />
        </mxCell>
        <mxCell id="5iVLJZqwECDxNZr4W1lh-6" value="mbon data uploader" style="rounded=1;whiteSpace=wrap;html=1;" vertex="1" parent="1">
          <mxGeometry x="-100" y="240" width="120" height="60" as="geometry" />
        </mxCell>
        <mxCell id="5iVLJZqwECDxNZr4W1lh-15" style="edgeStyle=orthogonalEdgeStyle;rounded=0;orthogonalLoop=1;jettySize=auto;html=1;exitX=0;exitY=0.5;exitDx=0;exitDy=0;" edge="1" parent="1" source="5iVLJZqwECDxNZr4W1lh-13" target="5iVLJZqwECDxNZr4W1lh-6">
          <mxGeometry relative="1" as="geometry" />
        </mxCell>
        <mxCell id="5iVLJZqwECDxNZr4W1lh-16" style="edgeStyle=orthogonalEdgeStyle;rounded=0;orthogonalLoop=1;jettySize=auto;html=1;exitX=0.5;exitY=1;exitDx=0;exitDy=0;entryX=0.5;entryY=0;entryDx=0;entryDy=0;" edge="1" parent="1" source="5iVLJZqwECDxNZr4W1lh-13" target="5iVLJZqwECDxNZr4W1lh-1">
          <mxGeometry relative="1" as="geometry" />
        </mxCell>
        <mxCell id="5iVLJZqwECDxNZr4W1lh-13" value="" style="whiteSpace=wrap;html=1;aspect=fixed;" vertex="1" parent="1">
          <mxGeometry x="90" y="20" width="80" height="80" as="geometry" />
        </mxCell>
        <mxCell id="5iVLJZqwECDxNZr4W1lh-14" value="" style="shape=umlActor;verticalLabelPosition=bottom;verticalAlign=top;html=1;outlineConnect=0;" vertex="1" parent="1">
          <mxGeometry x="115" y="30" width="30" height="60" as="geometry" />
        </mxCell>
      </root>
    </mxGraphModel>
  </diagram>
</mxfile>
